<svg width="20" height="20" viewBox="0 0 20 20" fill="none" xmlns="http://www.w3.org/2000/svg">
  <path d="M8.33333 10.8333C8.69119 11.3117 9.14913 11.7075 9.67575 11.9941C10.2024 12.2806 10.7846 12.4508 11.3822 12.4937C11.9799 12.5365 12.5796 12.4508 13.1427 12.2419C13.7059 12.0329 14.2192 11.7054 14.65 11.2808L17.15 8.78083C17.9082 7.99416 18.3273 6.9425 18.3161 5.85249C18.3049 4.76249 17.8642 3.71912 17.0899 2.94744C16.3157 2.17576 15.2699 1.73748 14.1799 1.72882C13.0899 1.72017 12.0399 2.14181 11.255 2.90166L9.79167 4.35833" stroke="currentColor" stroke-width="1.5" stroke-linecap="round" stroke-linejoin="round"/>
  <path d="M11.6667 9.16668C11.3088 8.68834 10.8509 8.29252 10.3242 8.00597C9.79762 7.71942 9.21536 7.54922 8.6177 7.50635C8.02005 7.46349 7.42039 7.54918 6.85723 7.75818C6.29407 7.96718 5.78072 8.29458 5.35 8.71918L2.85 11.2192C2.09181 12.0058 1.67269 13.0575 1.68387 14.1475C1.69505 15.2375 2.13572 16.2809 2.91002 17.0526C3.68432 17.8242 4.73008 18.2625 5.82012 18.2712C6.91016 18.2798 7.96006 17.8582 8.745 17.0983L10.2 15.6417" stroke="currentColor" stroke-width="1.5" stroke-linecap="round" stroke-linejoin="round"/>
</svg>
